:FULLY-SPECIFIED
:FORCE-ALL-JOINTS-BE-3DOF
:DEGREES
275
root 9.64326 16.535 1.84301 8.46218 0.96544 1.27567
lfemur -16.4938 5.13195 -24.9359
ltibia 21.6005 -0 0
lfoot -10.5623 3.18853 0.067175
ltoes 0.668096 -0 0
rfemur -13.6907 12.7734 12.7958
rtibia 24.6543 -0 0
rfoot -12.1481 -7.13401 2.13392
rtoes -19.1999 0 0
lowerback -7.60369 -1.37515 -3.42049
upperback -1.68011 -1.60203 1.90032
thorax 2.90904 -0.84217 3.60328
lowerneck -18.9121 -5.38871 -13.3995
upperneck 19.3165 -6.80622 13.6703
head 10.2623 -2.64402 6.16079
lclavicle -5.784e-14 3.83883e-15 -7.05879e-31
lhumerus -29.7437 -19.5156 91.3635
lradius 27.7549 -0 0
lwrist 5.63563 0 0
lhand -8.69537 -21.2052 -0.014064
lfingers 7.12502 -0 0
lthumb 17.2383 8.03157 -0.0183698
rclavicle -5.784e-14 3.83883e-15 -7.05879e-31
rhumerus -47.9369 7.45163 -85.266
rradius 39.0519 -0 0
rwrist -21.7183 0 0
rhand -30.1203 -25.6224 -0.00327813
rfingers 7.12502 -0 0
rthumb -3.4336 -55.5743 -0.00317794
276
root 9.6556 16.5428 1.97804 8.41701 1.17296 1.40542
lfemur -15.5371 5.02122 -25.0465
ltibia 20.9037 -0 0
lfoot -10.6875 3.12239 0.067175
ltoes 0.690104 -0 0
rfemur -14.6275 13.0435 12.4155
rtibia 24.6823 -0 0
rfoot -12.7927 -7.54793 2.13392
rtoes -19.3208 0 0
lowerback -7.61795 -1.49227 -3.53624
upperback -1.64533 -1.74839 1.90067
thorax 2.96976 -0.917784 3.65278
lowerneck -18.9229 -5.36669 -13.3846
upperneck 19.3971 -6.77614 13.6292
head 10.2859 -2.63305 6.15045
lclavicle -5.85423e-14 3.71499e-15 -7.05879e-31
lhumerus -29.1878 -20.0157 91.3963
lradius 28.0388 -0 0
lwrist 6.02791 0 0
lhand -8.78114 -21.1849 -0.014064
lfingers 7.12502 -0 0
lthumb 17.1558 8.05899 -0.0183698
rclavicle -5.85423e-14 3.71499e-15 -7.05879e-31
rhumerus -47.9901 7.42688 -85.1979
rradius 38.9344 -0 0
rwrist -21.6639 0 0
rhand -30.1103 -25.6628 -0.00327813
rfingers 7.12502 -0 0
rthumb -3.42393 -55.6148 -0.00317794
277
root 9.66793 16.5507 2.11306 8.3723 1.38058 1.53502
lfemur -14.5802 4.91235 -25.1588
ltibia 20.2069 -0 0
lfoot -10.8127 3.05625 0.0670305
ltoes 0.712112 -0 0
rfemur -15.5672 13.3075 12.0302
rtibia 24.7102 -0 0
rfoot -13.4372 -7.96182 2.12927
rtoes -19.4417 0 0
lowerback -7.63198 -1.60942 -3.65197
upperback -1.61055 -1.89475 1.90093
thorax 3.03041 -0.993451 3.70219
lowerneck -18.9338 -5.34467 -13.3696
upperneck 19.4776 -6.74599 13.5882
head 10.3095 -2.62207 6.14012
lclavicle -5.92447e-14 3.59116e-15 -7.04361e-31
lhumerus -28.6304 -20.5161 91.424
lradius 28.3226 -0 0
lwrist 6.42018 0 0
lhand -8.86691 -21.1647 -0.0140337
lfingers 7.12502 -0 0
lthumb 17.0732 8.08642 -0.0183302
rclavicle -5.92447e-14 3.59116e-15 -7.04361e-31
rhumerus -48.0434 7.40219 -85.1297
rradius 38.817 -0 0
rwrist -21.6095 0 0
rhand -30.1003 -25.7031 -0.00327108
rfingers 7.12502 -0 0
rthumb -3.41427 -55.6553 -0.00317111
278
root 9.68026 16.5586 2.24808 8.32806 1.5883 1.66447
lfemur -13.6234 4.80536 -25.2729
ltibia 19.5101 -0 0
lfoot -10.9379 2.9901 0.0667414
ltoes 0.734121 -0 0
rfemur -16.5097 13.5653 11.6401
rtibia 24.7382 -0 0
rfoot -14.0817 -8.37563 2.11996
rtoes -19.5625 0 0
lowerback -7.64578 -1.7266 -3.76768
upperback -1.57577 -2.04111 1.9011
thorax 3.09099 -1.06917 3.75153
lowerneck -18.9446 -5.32264 -13.3547
upperneck 19.5581 -6.71579 13.5472
head 10.3331 -2.61109 6.12979
lclavicle -5.99471e-14 3.46733e-15 -7.01325e-31
lhumerus -28.0714 -21.0167 91.4465
lradius 28.6064 -0 0
lwrist 6.81245 0 0
lhand -8.95267 -21.1445 -0.0139732
lfingers 7.12502 -0 0
lthumb 16.9907 8.11384 -0.0182512
rclavicle -5.99471e-14 3.46733e-15 -7.01325e-31
rhumerus -48.0967 7.37756 -85.0615
rradius 38.6995 -0 0
rwrist -21.5551 0 0
rhand -30.0903 -25.7435 -0.00325698
rfingers 7.12502 -0 0
rthumb -3.4046 -55.6958 -0.00315744
279
root 9.6926 16.5664 2.3831 8.28428 1.79611 1.79378
lfemur -12.6664 4.70028 -25.3888
ltibia 18.8133 -0 0
lfoot -11.0631 2.92396 0.0663078
ltoes 0.756129 -0 0
rfemur -17.455 13.8168 11.2452
rtibia 24.7661 -0 0
rfoot -14.7261 -8.7893 2.10601
rtoes -19.6834 0 0
lowerback -7.65934 -1.8438 -3.88337
upperback -1.54099 -2.18747 1.90118
thorax 3.15152 -1.14494 3.80079
lowerneck -18.9554 -5.30061 -13.3397
upperneck 19.6386 -6.68553 13.5063
head 10.3567 -2.6001 6.11947
lclavicle -6.06494e-14 3.34349e-15 -6.96771e-31
lhumerus -27.5108 -21.5175 91.4639
lradius 28.8902 -0 0
lwrist 7.20473 0 0
lhand -9.03844 -21.1243 -0.0138825
lfingers 7.12502 -0 0
lthumb 16.9081 8.14127 -0.0181327
rclavicle -6.06494e-14 3.34349e-15 -6.96771e-31
rhumerus -48.1501 7.353 -84.9932
rradius 38.5821 -0 0
rwrist -21.5007 0 0
rhand -30.0803 -25.7839 -0.00323583
rfingers 7.12502 -0 0
rthumb -3.39494 -55.7364 -0.00313693
280
root 9.70493 16.5743 2.51812 8.24096 2.00403 1.92294
lfemur -11.7094 4.59715 -25.5065
ltibia 18.1165 -0 0
lfoot -11.1883 2.85782 0.0657297
ltoes 0.778137 -0 0
rfemur -18.403 14.0619 10.8458
rtibia 24.7941 -0 0
rfoot -15.3704 -9.20279 2.0874
rtoes -19.8043 0 0
lowerback -7.67266 -1.96103 -3.99904
upperback -1.5062 -2.33383 1.90118
thorax 3.21198 -1.22076 3.84997
lowerneck -18.9662 -5.27858 -13.3248
upperneck 19.7191 -6.65521 13.4654
head 10.3803 -2.58912 6.10915
lclavicle -6.13518e-14 3.21966e-15 -6.90699e-31
lhumerus -26.9483 -22.0185 91.4761
lradius 29.174 -0 0
lwrist 7.597 0 0
lhand -9.12421 -21.1041 -0.0137615
lfingers 7.12502 -0 0
lthumb 16.8256 8.16869 -0.0179746
rclavicle -6.13518e-14 3.21966e-15 -6.90699e-31
rhumerus -48.2034 7.3285 -84.925
rradius 38.4646 -0 0
rwrist -21.4462 0 0
rhand -30.0703 -25.8242 -0.00320763
rfingers 7.12502 -0 0
rthumb -3.38528 -55.7769 -0.0031096
281
root 9.71726 16.5822 2.65314 8.19811 2.21205 2.05196
lfemur -10.7523 4.49599 -25.6258
ltibia 17.4198 -0 0
lfoot -11.3135 2.79168 0.0650071
ltoes 0.800145 -0 0
rfemur -19.3539 14.3006 10.4417
rtibia 24.822 -0 0
rfoot -16.0145 -9.61604 2.06416
rtoes -19.9251 0 0
lowerback -7.68575 -2.07829 -4.11468
upperback -1.4714 -2.48018 1.90108
thorax 3.27237 -1.29664 3.89907
lowerneck -18.977 -5.25655 -13.3098
upperneck 19.7995 -6.62484 13.4246
head 10.4039 -2.57812 6.09883
lclavicle -6.20542e-14 3.09583e-15 -6.83109e-31
lhumerus -26.3839 -22.5195 91.483
lradius 29.4578 -0 0
lwrist 7.98927 0 0
lhand -9.20997 -21.0839 -0.0136102
lfingers 7.12502 -0 0
lthumb 16.743 8.19611 -0.0177771
rclavicle -6.20542e-14 3.09583e-15 -6.83109e-31
rhumerus -48.2568 7.30406 -84.8567
rradius 38.3472 -0 0
rwrist -21.3918 0 0
rhand -30.0603 -25.8646 -0.00317238
rfingers 7.12502 -0 0
rthumb -3.37561 -55.8174 -0.00307542
